<svg width="26" height="42" viewBox="0 0 26 42" fill="none" xmlns="http://www.w3.org/2000/svg">
<path d="M20.1811 40.6869L2.86594 29.4138C2.86594 29.4138 0.694103 28.1656 0.196821 25.8422C-0.50148 22.576 1.79948 19.7764 1.79948 19.7764L24.2724 34.4118C26.006 35.5419 26.479 37.8534 25.365 39.5971C24.2216 41.3852 21.8689 41.7809 20.1811 40.6869Z" fill="#38D200"/>
<path d="M3.77897 17.3582C3.77897 17.3582 1.12634 15.7556 1.12634 12.0525C1.12634 8.36044 3.7776 6.7793 3.7776 6.7793L13.2452 0.583424C14.0783 0.0546664 15.0863 -0.124138 16.0504 0.0858297C17.0146 0.295798 17.857 0.877588 18.3947 1.70489C18.9325 2.5322 19.1222 3.53823 18.9227 4.50458C18.7233 5.47093 18.1506 6.31959 17.3292 6.8663L9.35073 12.0617L22.9449 20.9148C22.9449 20.9148 25.392 22.3173 25.8755 24.6837C26.5482 27.9852 24.2756 30.7052 24.2756 30.7052L3.77897 17.3582Z" fill="#0473EA"/>
<path d="M21.5983 8.36963C20.709 8.36963 20.0767 8.64986 19.4594 9.0519L14.8383 12.0617L19.4594 15.0715C20.0826 15.4726 20.7365 15.7533 21.5983 15.7533C22.5703 15.7425 23.4988 15.3488 24.1823 14.6576C24.8659 13.9664 25.2492 13.0335 25.2492 12.0615C25.2492 11.0894 24.8659 10.1565 24.1823 9.46536C23.4988 8.77418 22.5703 8.38045 21.5983 8.36963" fill="#38D200"/>
<path d="M3.73318 41.2855C4.62197 41.2855 5.25434 41.0053 5.87159 40.6032L10.4932 37.5934L5.87159 34.5837C5.24838 34.1825 4.59496 33.9018 3.73318 33.9018C3.2449 33.8964 2.7604 33.9879 2.30771 34.171C1.85503 34.3541 1.44316 34.6251 1.09596 34.9685C0.748755 35.3119 0.473112 35.7207 0.284989 36.1713C0.0968655 36.6219 0 37.1054 0 37.5937C0 38.082 0.0968655 38.5654 0.284989 39.0161C0.473112 39.4667 0.748755 39.8755 1.09596 40.2189C1.44316 40.5622 1.85503 40.8333 2.30771 41.0164C2.7604 41.1995 3.2449 41.291 3.73318 41.2855" fill="#0473EA"/>
</svg>
